#!OML:ASF H:\ManfredETheater\Project 1\Capture day 1\Session 1\subject.ASF
:FULLY-SPECIFIED
:DEGREES
157
root 5.81138 11.8975 -10.3446 -41.9529 -80.6211 59.2805
lowerback 63.65 -1.33843 2.02215
upperback 11.4594 -3.07275 -1.79429
thorax -8.72621 -2.0982 -1.36422
lowerneck -8.25286 39.6113 3.13697
upperneck 6.58854 61.0673 2.10532
head 29.5333 -38.7396 148.684
rclavicle -3.49861e-014 -4.25399e-014
rhumerus -1.99089 -1.62416 -46.7808
rradius 64.8539
rwrist -21.2861
rhand -22.8198 1.82801
rfingers 7.12502
rthumb 3.6171 -28.121
lclavicle -3.49861e-014 -4.25399e-014
lhumerus -39.2571 10.9615 75.7011
lradius 127.818
lwrist 4.73387
lhand -28.4353 3.20324
lfingers 7.12502
lthumb -1.80638 33.1753
rfemur -93.8275 -26.2366 34.2344
rtibia 119.814
rfoot -28.6546 -8.71579
rtoes -30.8314
lfemur -85.4734 38.5707 -18.2046
ltibia 117.83
lfoot 2.24468 -37.3472
ltoes 7.81978
158
root 5.80926 11.9077 -10.1734 -49.4495 -80.3099 66.3026
lowerback 64.7656 -0.81625 1.43806
upperback 11.2816 -2.93 -1.95558
thorax -8.92118 -2.03976 -1.35465
lowerneck -8.77068 39.1991 2.74988
upperneck 6.34989 60.7858 1.83638
head 29.6146 -39.1065 148.559
rclavicle -5.56597e-015 3.51849e-014
rhumerus -1.68343 -1.54014 -45.7433
rradius 65.6189
rwrist -21.086
rhand -22.7067 2.17371
rfingers 7.12502
rthumb 3.72636 -27.7735
lclavicle -5.56597e-015 3.51849e-014
lhumerus -39.5695 11.2145 75.51
lradius 128.284
lwrist 4.69411
lhand -28.5571 3.47073
lfingers 7.12502
lthumb -1.92395 33.4418
rfemur -92.4265 -25.719 32.6591
rtibia 119.092
rfoot -30.1481 -10.6134
rtoes -29.0816
lfemur -82.8819 39.0201 -15.647
ltibia 116.739
lfoot -2.66312 -34.32
ltoes 2.94051
159
root 5.80688 11.9158 -10.0054 -56.2639 -80.0356 72.6796
lowerback 65.817 -0.235445 0.917356
upperback 11.1188 -2.70034 -2.07022
thorax -9.08314 -1.948 -1.36494
lowerneck -9.29428 38.7801 2.36378
upperneck 6.10683 60.4886 1.56656
head 29.695 -39.4857 148.429
rclavicle -5.1684e-014 -2.52457e-014
rhumerus -1.36443 -1.61154 -44.7112
rradius 66.4014
rwrist -20.9651
rhand -22.6059 2.51519
rfingers 7.12502
rthumb 3.82371 -27.4303
lclavicle -5.1684e-014 -2.52457e-014
lhumerus -39.8337 11.3629 75.3698
lradius 128.679
lwrist 4.66664
lhand -28.7137 3.66497
lfingers 7.12502
lthumb -2.07524 33.6346
rfemur -90.9909 -25.0688 30.7685
rtibia 118.51
rfoot -31.4816 -12.2071
rtoes -27.6377
lfemur -80.0547 39.3248 -12.6451
ltibia 115.332
lfoot -6.73888 -30.9262
ltoes -1.55378
160
root 5.80397 11.9192 -9.83752 -62.1018 -79.798 78.1664
lowerback 66.7251 0.318252 0.525001
upperback 10.9828 -2.42312 -2.13925
thorax -9.20585 -1.83806 -1.40397
lowerneck -9.79311 38.3572 1.97793
upperneck 5.86982 60.1846 1.30213
head 29.786 -39.8994 148.294
rclavicle 2.70347e-014 2.0773e-014
rhumerus -1.01721 -1.85799 -43.7107
rradius 67.1691
rwrist -20.8279
rhand -22.5116 2.89121
rfingers 7.12502
rthumb 3.91473 -27.0526
lclavicle 2.70347e-014 2.0773e-014
lhumerus -40.053 11.4213 75.2941
lradius 128.995
lwrist 4.60264
lhand -28.8774 3.77575
lfingers 7.12502
lthumb -2.2333 33.7438
rfemur -89.6887 -24.3424 28.7114
rtibia 118.076
rfoot -32.6008 -13.1886
rtoes -26.6862
lfemur -77.162 39.3422 -9.36439
ltibia 113.587
lfoot -9.95852 -27.409
ltoes -5.21044
161
root 5.8004 11.9149 -9.66719 -66.587 -79.5986 82.4434
lowerback 67.3995 0.755657 0.311938
upperback 10.8911 -2.14378 -2.16167
thorax -9.27876 -1.72729 -1.46852
lowerneck -10.2894 37.9341 1.5803
upperneck 5.6379 59.879 1.04027
head 29.8785 -40.3241 148.155
rclavicle -3.97569e-015 -1.89839e-014
rhumerus -0.628935 -2.26626 -42.7581
rradius 67.9095
rwrist -20.5545
rhand -22.4746 3.25991
rfingers 7.12502
rthumb 3.95049 -26.6832
lclavicle -3.97569e-015 -1.89839e-014
lhumerus -40.2368 11.4222 75.2899
lradius 129.231
lwrist 4.4397
lhand -28.9725 3.7955
lfingers 7.12502
lthumb -2.32517 33.7626
rfemur -88.6934 -23.6593 26.643
rtibia 117.783
rfoot -33.4356 -13.7011
rtoes -26.1672
lfemur -74.4328 38.9741 -6.02139
ltibia 111.517
lfoot -12.2752 -24.0674
ltoes -7.5417
162
root 5.79635 11.9023 -9.49184 -69.5718 -79.4462 85.3587
lowerback 67.8545 1.01243 0.303787
upperback 10.8414 -1.90401 -2.14275
thorax -9.31021 -1.63188 -1.55378
lowerneck -10.7502 37.5157 1.17375
upperneck 5.42048 59.5793 0.787055
head 29.9857 -40.7855 148.01
rclavicle 3.02153e-014 -1.23246e-014
rhumerus -0.178365 -2.83761 -41.88
rradius 68.5948
rwrist -20.0599
rhand -22.5045 3.64251
rfingers 7.12502
rthumb 3.92165 -26.3012
lclavicle 3.02153e-014 -1.23246e-014
lhumerus -40.4014 11.3735 75.3806
lradius 129.397
lwrist 4.13614
lhand -29.0242 3.754
lfingers 7.12502
lthumb -2.37511 33.7205
rfemur -88.0464 -23.1289 24.7134
rtibia 117.599
rfoot -33.9561 -13.9334
rtoes -26.229
lfemur -71.9925 38.1992 -2.79534
ltibia 109.137
lfoot -13.837 -21.124
ltoes -8.615
163
root 5.79199 11.8828 -9.3109 -71.0984 -79.3565 86.9447
lowerback 68.1166 1.06931 0.492252
upperback 10.8256 -1.72523 -2.08756
thorax -9.31162 -1.56012 -1.65102
lowerneck -11.1857 37.1143 0.759362
upperneck 5.21679 59.3063 0.54011
head 30.1021 -41.257 147.864
rclavicle -3.02153e-014 -2.28602e-014
rhumerus 0.354984 -3.55404 -41.104
rradius 69.2075
rwrist -19.3593
rhand -22.6067 4.04582
rfingers 7.12502
rthumb 3.82295 -25.8996
lclavicle -3.02153e-014 -2.28602e-014
lhumerus -40.5698 11.3172 75.5493
lradius 129.503
lwrist 3.6372
lhand -28.9394 3.66536
lfingers 7.12502
lthumb -2.29322 33.6328
rfemur -87.7612 -22.8487 22.9922
rtibia 117.531
rfoot -34.2217 -13.8928
rtoes -26.4824
lfemur -69.9025 37.0657 0.21022
ltibia 106.46
lfoot -14.7826 -18.7511
ltoes -8.68063
164
root 5.7877 11.857 -9.1228 -70.8632 -79.3176 86.9142
lowerback 68.1485 0.8559 0.910831
upperback 10.8523 -1.65807 -2.01
thorax -9.27736 -1.53062 -1.76703
lowerneck -11.6037 36.7412 0.342303
upperneck 5.02758 59.065 0.301109
head 30.2288 -41.7284 147.71
rclavicle 3.18055e-015 -2.18663e-015
rhumerus 0.989885 -4.37286 -40.4607
rradius 69.7417
rwrist -18.4896
rhand -22.8395 4.41274
rfingers 7.12502
rthumb 3.59809 -25.5366
lclavicle 3.18055e-015 -2.18663e-015
lhumerus -40.7549 11.2773 75.7737
lradius 129.56
lwrist 2.94629
lhand -28.7147 3.54954
lfingers 7.12502
lthumb -2.07618 33.5192
rfemur -87.8575 -22.9518 21.5558
rtibia 117.558
rfoot -34.2119 -13.7087
rtoes -26.8457
lfemur -68.2913 35.5883 2.89637
ltibia 103.514
lfoot -15.248 -17.0532
ltoes -8.3119
